<?xml version="1.0" encoding="UTF-8" standalone="no"?>
<!-- Created with Inkscape (http://www.inkscape.org/) -->

<svg
   width="67.733383mm"
   height="7.7386823mm"
   viewBox="0 0 67.733382 7.7386821"
   version="1.1"
   id="svg5"
   sodipodi:docname="check.svg"
   inkscape:version="1.1 (c68e22c387, 2021-05-23)"
   xmlns:inkscape="http://www.inkscape.org/namespaces/inkscape"
   xmlns:sodipodi="http://sodipodi.sourceforge.net/DTD/sodipodi-0.dtd"
   xmlns="http://www.w3.org/2000/svg"
   xmlns:svg="http://www.w3.org/2000/svg">
  <sodipodi:namedview
     id="namedview7"
     pagecolor="#ffffff"
     bordercolor="#666666"
     borderopacity="1.0"
     inkscape:pageshadow="2"
     inkscape:pageopacity="0.0"
     inkscape:pagecheckerboard="0"
     inkscape:document-units="mm"
     showgrid="false"
     inkscape:zoom="0.76791526"
     inkscape:cx="519.58858"
     inkscape:cy="275.42101"
     inkscape:window-width="1842"
     inkscape:window-height="1051"
     inkscape:window-x="-9"
     inkscape:window-y="-9"
     inkscape:window-maximized="1"
     inkscape:current-layer="layer1" />
  <defs
     id="defs2" />
  <g
     inkscape:label="Layer 1"
     inkscape:groupmode="layer"
     id="layer1"
     transform="translate(-42.119456,-109.65583)">
    <path
       style="fill:#0078b1;fill-opacity:1;stroke-width:0.121185"
       d="m 42.415731,117.09702 c -0.174998,-0.175 -0.296968,-0.43692 -0.296272,-0.63622 0.0018,-0.52326 0.534119,-1.5461 1.143798,-2.1979 l 0.551615,-0.58972 v -1.53254 -1.53255 h 0.538019 c 0.534235,0 0.538284,-0.003 0.575631,-0.45445 l 0.03761,-0.45444 0.889804,-0.0358 c 1.003008,-0.0404 1.230942,0.07 1.230942,0.596 0,0.32605 0.03151,0.34872 0.484742,0.34872 h 0.484741 v 0.48756 0.48756 l 0.636224,-0.50493 c 0.7637,-0.60611 1.268719,-0.83374 1.849695,-0.83374 0.870631,0 1.283531,0.92873 0.900894,2.02636 -0.114865,0.32951 -0.09073,0.40277 0.242371,0.73588 0.446051,0.44605 0.472014,0.83377 0.11901,1.77726 -0.318894,0.85232 -1.256204,1.88842 -2.079529,2.2987 -0.624395,0.31115 -0.631647,0.31174 -3.818713,0.31174 h -3.193129 z m 7.275385,-0.23955 c 0.558375,-0.2333 1.479002,-1.17316 1.763922,-1.80077 0.414391,-0.9128 0.251842,-1.83814 -0.358645,-2.04164 -0.103184,-0.0344 -0.09098,-0.18906 0.04545,-0.57571 0.698132,-1.97873 -0.889703,-2.5616 -2.570437,-0.94358 l -0.515038,0.49582 v 1.12603 c 0,0.62485 -0.05089,1.12603 -0.114325,1.12603 -0.06288,0 -0.395571,0.29738 -0.739316,0.66084 -0.597678,0.63195 -0.654912,0.66241 -1.309605,0.69681 l -0.684613,0.036 -0.03663,0.63623 -0.03663,0.63622 h -0.841965 -0.841965 v -1.11142 c 0,-0.86563 0.04451,-1.1606 0.201233,-1.33379 0.110678,-0.12229 0.16592,-0.25767 0.122761,-0.30083 -0.112883,-0.11288 -0.854988,0.70736 -1.092149,1.20714 -0.234961,0.49514 -0.264878,1.30569 -0.05591,1.51466 0.227995,0.228 6.510775,0.20307 7.063861,-0.028 z m -4.300833,-0.43248 c 0,-0.40395 0.04039,-0.48474 0.242371,-0.48474 0.201976,0 0.242371,0.0808 0.242371,0.48474 0,0.40395 -0.04039,0.48474 -0.242371,0.48474 -0.201976,0 -0.242371,-0.0808 -0.242371,-0.48474 z m 0.605928,0 c 0,-0.40395 0.04039,-0.48474 0.24237,-0.48474 0.201976,0 0.242371,0.0808 0.242371,0.48474 0,0.40395 -0.0404,0.48474 -0.242371,0.48474 -0.201976,0 -0.24237,-0.0808 -0.24237,-0.48474 z m 0.727112,-0.0246 v -0.50934 l 0.484742,0.47334 c 0.266608,0.26033 0.484742,0.48954 0.484742,0.50933 0,0.0198 -0.218134,0.036 -0.484742,0.036 h -0.484742 z m 0.544744,-0.21838 -0.597406,-0.60652 0.265708,-0.26571 0.265709,-0.26571 0.306637,0.28807 0.306636,0.28807 -0.273347,0.31149 -0.273347,0.3115 0.311498,-0.27335 0.311498,-0.27334 0.284064,0.30237 c 0.275797,0.29357 0.277647,0.30947 0.06357,0.54602 -0.12127,0.134 -0.25499,0.24364 -0.297154,0.24364 -0.04217,0 -0.345495,-0.27294 -0.674069,-0.60653 z m 0.988856,-0.22102 c -0.260953,-0.28835 -0.25291,-0.42055 0.04181,-0.68727 0.233889,-0.21167 0.250853,-0.21167 0.484742,0 0.300639,0.27207 0.305862,0.45031 0.02075,0.70833 -0.277239,0.2509 -0.302054,0.24994 -0.547306,-0.0211 z m -0.664857,-0.7867 -0.264175,-0.2812 0.281881,-0.26481 0.281881,-0.26481 0.284064,0.30237 c 0.275797,0.29357 0.277647,0.30946 0.06357,0.54602 -0.278663,0.30792 -0.3252,0.30521 -0.647224,-0.0376 z m -2.831039,0.97802 c -0.03623,-0.50072 -0.04905,-0.51504 -0.461413,-0.51504 -0.375731,0 -0.428639,0.0392 -0.463483,0.3435 -0.06201,0.54151 0.0494,0.68658 0.52724,0.68658 h 0.43492 z m -0.219042,-2.454 c 0,-0.24238 -0.06059,-0.30297 -0.302964,-0.30297 -0.242371,0 -0.302964,0.0606 -0.302964,0.30297 0,0.24237 0.06059,0.30296 0.302964,0.30296 0.242371,0 0.302964,-0.0606 0.302964,-0.30296 z m 3.393193,0 c 0,-0.24238 -0.06059,-0.30297 -0.302964,-0.30297 -0.242371,0 -0.302964,0.0606 -0.302964,0.30297 0,0.24237 0.06059,0.30296 0.302964,0.30296 0.242371,0 0.302964,-0.0606 0.302964,-0.30296 z m -2.181339,-0.18178 c 0,-0.32316 -0.04039,-0.36356 -0.363556,-0.36356 -0.323161,0 -0.363556,0.0404 -0.363556,0.36356 0,0.32316 0.04039,0.36356 0.363556,0.36356 0.323161,0 0.363556,-0.0404 0.363556,-0.36356 z m 1.09067,0 c 0,-0.32316 -0.04039,-0.36356 -0.363557,-0.36356 -0.323161,0 -0.363556,0.0404 -0.363556,0.36356 0,0.32316 0.04039,0.36356 0.363556,0.36356 0.323161,0 0.363557,-0.0404 0.363557,-0.36356 z m -2.302524,-0.67495 c 0,-0.25361 -0.0506,-0.30421 -0.272668,-0.27267 -0.175229,0.0249 -0.286505,0.13617 -0.311392,0.31139 -0.03154,0.22208 0.01906,0.27267 0.272667,0.27267 0.25361,0 0.311393,-0.0578 0.311393,-0.31139 z m 3.371325,0.0387 c -0.02542,-0.17897 -0.122013,-0.27267 -0.281096,-0.27267 -0.159083,0 -0.255678,0.0937 -0.281096,0.27267 -0.03176,0.22367 0.01875,0.27267 0.281096,0.27267 0.26235,0 0.312862,-0.049 0.281096,-0.27267 z m -2.159471,-0.33326 c 0,-0.32317 -0.04039,-0.36356 -0.363556,-0.36356 -0.323161,0 -0.363556,0.0404 -0.363556,0.36356 0,0.32316 0.04039,0.36355 0.363556,0.36355 0.323161,0 0.363556,-0.0404 0.363556,-0.36355 z m 1.09067,0 c 0,-0.32317 -0.04039,-0.36356 -0.363557,-0.36356 -0.323161,0 -0.363556,0.0404 -0.363556,0.36356 0,0.32316 0.04039,0.36355 0.363556,0.36355 0.323161,0 0.363557,-0.0404 0.363557,-0.36355 z m -2.302524,-0.42415 c 0,-0.24237 -0.06059,-0.30297 -0.302964,-0.30297 -0.212993,0 -0.302964,0.066 -0.302964,0.22218 0,0.12219 0.03636,0.25853 0.08079,0.30296 0.04443,0.0444 0.180768,0.0808 0.302963,0.0808 0.156195,0 0.222174,-0.09 0.222174,-0.30296 z m 3.393193,0 c 0,-0.24237 -0.06059,-0.30297 -0.302964,-0.30297 -0.242371,0 -0.302964,0.0606 -0.302964,0.30297 0,0.24237 0.06059,0.30296 0.302964,0.30296 0.242371,0 0.302964,-0.0606 0.302964,-0.30296 z m -2.181339,-0.54534 c 0,-0.32316 -0.04039,-0.36355 -0.363556,-0.36355 -0.323161,0 -0.363556,0.0404 -0.363556,0.36355 0,0.32317 0.04039,0.36356 0.363556,0.36356 0.323161,0 0.363556,-0.0404 0.363556,-0.36356 z m 1.09067,0 c 0,-0.32316 -0.04039,-0.36355 -0.363557,-0.36355 -0.323161,0 -0.363556,0.0404 -0.363556,0.36355 0,0.32317 0.04039,0.36356 0.363556,0.36356 0.323161,0 0.363557,-0.0404 0.363557,-0.36356 z m -2.302524,-0.30296 c 0,-0.24237 -0.06059,-0.30296 -0.302964,-0.30296 -0.242371,0 -0.302964,0.0606 -0.302964,0.30296 0,0.24237 0.06059,0.30296 0.302964,0.30296 0.242371,0 0.302964,-0.0606 0.302964,-0.30296 z m 3.393193,0 c 0,-0.24237 -0.06059,-0.30296 -0.302964,-0.30296 -0.242371,0 -0.302964,0.0606 -0.302964,0.30296 0,0.24237 0.06059,0.30296 0.302964,0.30296 0.242371,0 0.302964,-0.0606 0.302964,-0.30296 z m -2.181339,-0.66652 c 0,-0.32316 -0.04039,-0.36355 -0.363556,-0.36355 -0.323161,0 -0.363556,0.0404 -0.363556,0.36355 0,0.32316 0.04039,0.36356 0.363556,0.36356 0.323161,0 0.363556,-0.0404 0.363556,-0.36356 z m 1.09067,0 c 0,-0.32316 -0.04039,-0.36355 -0.363557,-0.36355 -0.323161,0 -0.363556,0.0404 -0.363556,0.36355 0,0.32316 0.04039,0.36356 0.363556,0.36356 0.323161,0 0.363557,-0.0404 0.363557,-0.36356 z"
       id="path5881" />
    <text
       xml:space="preserve"
       style="font-style:normal;font-variant:normal;font-weight:normal;font-stretch:normal;font-size:10.6683px;line-height:1.25;font-family:'Courier New';-inkscape-font-specification:'Courier New';fill:#000080;fill-opacity:1;stroke:none;stroke-width:0.266707"
       x="52.576023"
       y="116.62101"
       id="text1744"><tspan
         sodipodi:role="line"
         id="tspan1742"
         style="font-style:normal;font-variant:normal;font-weight:normal;font-stretch:normal;font-family:'Courier New';-inkscape-font-specification:'Courier New';fill:#000080;fill-opacity:1;stroke-width:0.266707"
         x="52.576023"
         y="116.62101">Cakrasoft</tspan></text>
    <path
       style="fill:#000080;fill-opacity:1;stroke-width:0.121185"
       d="m 43.917396,117.20639 c -1.532514,-0.0497 -1.649864,-0.11349 -1.639139,-0.89062 0.01073,-0.77771 0.537902,-1.68886 1.361673,-2.35349 0.16287,-0.13141 0.06726,0.005 -0.212462,0.30296 -0.530986,0.56575 -0.999011,1.44801 -1.003567,1.8918 -0.0015,0.14258 0.09277,0.37657 0.209413,0.51998 0.207673,0.25533 0.280549,0.26072 3.511317,0.25982 3.791464,-9.1e-4 3.814109,-0.006 4.794985,-1.09721 0.969156,-1.07793 1.175683,-2.32933 0.45687,-2.76821 -0.318002,-0.19416 -0.326035,-0.22225 -0.179436,-0.62741 0.263336,-0.72776 0.213797,-1.42336 -0.12554,-1.76269 -0.500839,-0.50084 -1.308366,-0.3249 -2.359283,0.51403 l -0.554678,0.44279 0.419512,-0.44731 c 0.460794,-0.49132 1.471757,-1.04934 1.901103,-1.04934 0.654781,0 1.133169,0.48031 1.133169,1.13771 0,0.1529 -0.07646,0.53206 -0.169918,0.84259 -0.09346,0.31053 -0.120721,0.5646 -0.06059,0.5646 0.06013,0 0.218395,0.10906 0.351698,0.24236 0.577797,0.5778 0.139711,2.12601 -0.906049,3.20202 -0.892281,0.91809 -1.16802,1.00153 -3.517222,1.06437 -1.133084,0.0303 -2.668418,0.0354 -3.411854,0.0113 z"
       id="path10665" />
    <text
       xml:space="preserve"
       style="font-style:normal;font-variant:normal;font-weight:normal;font-stretch:normal;font-size:10.6683px;line-height:1.25;font-family:'Courier New';-inkscape-font-specification:'Courier New';fill:#000080;fill-opacity:1;stroke:none;stroke-width:0.266707"
       x="52.576023"
       y="116.62101"
       id="text74095"><tspan
         sodipodi:role="line"
         id="tspan74093"
         style="font-style:normal;font-variant:normal;font-weight:normal;font-stretch:normal;font-family:'Courier New';-inkscape-font-specification:'Courier New';fill:#000080;fill-opacity:1;stroke-width:0.266707"
         x="52.576023"
         y="116.62101">Cakrasoft</tspan></text>
    <text
       xml:space="preserve"
       style="font-style:normal;font-variant:normal;font-weight:normal;font-stretch:normal;font-size:10.6683px;line-height:1.25;font-family:'Courier New';-inkscape-font-specification:'Courier New';fill:#0078b1;fill-opacity:1;stroke:none;stroke-width:0.266707"
       x="52.995178"
       y="116.74421"
       id="text74095-6"><tspan
         sodipodi:role="line"
         id="tspan74093-5"
         style="font-style:normal;font-variant:normal;font-weight:normal;font-stretch:normal;font-family:'Courier New';-inkscape-font-specification:'Courier New';fill:#0078b1;fill-opacity:1;stroke-width:0.266707"
         x="52.995178"
         y="116.74421">Cakrasoft</tspan></text>
  </g>
</svg>
