<?xml version="1.0" encoding="UTF-8" standalone="no"?>
<!-- Created with Inkscape (http://www.inkscape.org/) -->

<svg
   xmlns:dc="http://purl.org/dc/elements/1.1/"
   xmlns:cc="http://creativecommons.org/ns#"
   xmlns:rdf="http://www.w3.org/1999/02/22-rdf-syntax-ns#"
   xmlns:svg="http://www.w3.org/2000/svg"
   xmlns="http://www.w3.org/2000/svg"
   xmlns:sodipodi="http://sodipodi.sourceforge.net/DTD/sodipodi-0.dtd"
   xmlns:inkscape="http://www.inkscape.org/namespaces/inkscape"
   width="210mm"
   height="297mm"
   viewBox="0 0 210 297"
   version="1.1"
   id="svg8"
   inkscape:version="0.92.4 (5da689c313, 2019-01-14)"
   sodipodi:docname="AutoAssingReady.svg">
  <defs
     id="defs2" />
  <sodipodi:namedview
     id="base"
     pagecolor="#ffffff"
     bordercolor="#666666"
     borderopacity="1.0"
     inkscape:pageopacity="0.0"
     inkscape:pageshadow="2"
     inkscape:zoom="0.24748738"
     inkscape:cx="-781.04239"
     inkscape:cy="1001.1294"
     inkscape:document-units="mm"
     inkscape:current-layer="layer2"
     showgrid="false"
     inkscape:snap-global="false"
     showguides="true"
     inkscape:window-width="1366"
     inkscape:window-height="715"
     inkscape:window-x="-8"
     inkscape:window-y="-8"
     inkscape:window-maximized="1"
     inkscape:guide-bbox="true">
    <sodipodi:guide
       position="-40.065474,21.166667"
       orientation="0,1"
       id="guide976"
       inkscape:locked="false" />
  </sodipodi:namedview>
  <metadata
     id="metadata5">
    <rdf:RDF>
      <cc:Work
         rdf:about="">
        <dc:format>image/svg+xml</dc:format>
        <dc:type
           rdf:resource="http://purl.org/dc/dcmitype/StillImage" />
        <dc:title></dc:title>
      </cc:Work>
    </rdf:RDF>
  </metadata>
  <g
     inkscape:label="Layer 1"
     inkscape:groupmode="layer"
     id="layer1" />
  <g
     inkscape:groupmode="layer"
     id="layer2"
     inkscape:label="Layer 2">
    <g
       id="g960"
       inkscape:export-xdpi="11.947729"
       inkscape:export-ydpi="11.947729">
      <g
         transform="matrix(0.99999986,0,0,1.0024596,1.7036731e-5,-0.5371494)"
         id="g944">
        <path
           inkscape:connector-curvature="0"
           style="opacity:1;fill:#7367f0;fill-opacity:0.90980392;stroke:#e8e8e8;stroke-width:0.01553311;stroke-linecap:round;stroke-miterlimit:4;stroke-dasharray:0.01553311, 0.06213245;stroke-dashoffset:0;stroke-opacity:1"
           d="m 61.782484,82.561346 c -5.330397,0 -9.621588,4.589209 -9.621588,10.289801 V 208.09093 c 0,5.70059 4.291191,10.28979 9.621588,10.28979 h 47.278026 a 28.064597,30.013658 0 0 1 -0.86506,-7.27619 28.064597,30.013658 0 0 1 0.71985,-6.63346 H 72.224175 c -4.238599,0 -7.651175,-3.64903 -7.651175,-8.182 V 104.653 c 0,-4.53297 3.412576,-8.181989 7.651175,-8.181989 h 66.462285 c 4.2386,0 7.65118,3.649019 7.65118,8.181989 v 45.73956 a 28.064597,30.013658 0 0 1 6.18667,-0.77647 28.064597,30.013658 0 0 1 6.22543,0.77592 V 92.851147 c 0,-5.700592 -4.29119,-10.289801 -9.62159,-10.289801 z"
           id="rect830" />
        <g
           id="g932"
           transform="translate(1.9600869e-6,-4.4099496)">
          <g
             style="fill:#7367f0;fill-opacity:1"
             transform="translate(0.01756966,0.46922134)"
             id="g854">
            <path
               inkscape:connector-curvature="0"
               style="opacity:1;fill:#7367f0;fill-opacity:1;stroke:#e8e8e8;stroke-width:0.05676987;stroke-linecap:round;stroke-miterlimit:4;stroke-dasharray:0.05676986, 0.22707953;stroke-dashoffset:0;stroke-opacity:1"
               d="m 398.50586,518.44922 a 110.6117,65.154837 0 0 0 -110.61328,65.1543 110.6117,65.154837 0 0 0 110.61328,65.15429 110.6117,65.154837 0 0 0 110.61133,-65.15429 110.6117,65.154837 0 0 0 -110.61133,-65.1543 z m 0,20.19336 a 76.32843,44.960585 0 0 1 76.32812,44.96094 76.32843,44.960585 0 0 1 -76.32812,44.96093 76.32843,44.960585 0 0 1 -76.33008,-44.96093 76.32843,44.960585 0 0 1 76.33008,-44.96094 z"
               transform="scale(0.26458333)"
               id="path839" />
            <ellipse
               style="opacity:1;fill:#7367f0;fill-opacity:1;stroke:#e8e8e8;stroke-width:0.01502036;stroke-linecap:round;stroke-miterlimit:4;stroke-dasharray:0.01502036, 0.06008146;stroke-dashoffset:0;stroke-opacity:1"
               id="path844"
               cx="105.43775"
               cy="154.41176"
               rx="7.416729"
               ry="11.292137" />
          </g>
          <rect
             transform="rotate(51.664316)"
             ry="5.1973186"
             y="-27.382923"
             x="181.70033"
             height="81.464943"
             width="10.394637"
             id="rect846"
             style="opacity:1;fill:#ea5455;fill-opacity:1;stroke:#e8e8e8;stroke-width:0.01921263;stroke-linecap:round;stroke-miterlimit:4;stroke-dasharray:0.01921263, 0.07685054;stroke-dashoffset:0;stroke-opacity:1" />
        </g>
        <g
           id="g870"
           transform="translate(0.26189715)"
           style="fill:#73b7f0;fill-opacity:0.90980392">
          <path
             inkscape:connector-curvature="0"
             id="path856"
             d="m 152.2624,168.97829 a 35.679903,35.679903 0 0 0 -35.67999,35.67999 35.679903,35.679903 0 0 0 0.005,0.14935 c 0.10453,-0.008 0.20909,-0.0155 0.31574,-0.0155 h 71.03236 a 35.679903,35.679903 0 0 0 0.007,-0.13384 35.679903,35.679903 0 0 0 -35.67999,-35.67999 z"
             style="opacity:1;fill:#73b7f0;fill-opacity:0.90980392;stroke:#e8e8e8;stroke-width:0.01617085;stroke-linecap:round;stroke-miterlimit:4;stroke-dasharray:0.01617085, 0.06468343;stroke-dashoffset:0;stroke-opacity:1" />
          <rect
             style="opacity:1;fill:#73b7f0;fill-opacity:0.90980392;stroke:#e8e8e8;stroke-width:0.01644291;stroke-linecap:round;stroke-miterlimit:4;stroke-dasharray:0.01644291, 0.06577167;stroke-dashoffset:0;stroke-opacity:1"
             id="rect863"
             width="71.359535"
             height="7.0144024"
             x="116.5827"
             y="211.34619"
             ry="0" />
          <circle
             r="5.5458426"
             cy="161.97821"
             cx="152.26247"
             id="path865"
             style="opacity:1;fill:#73b7f0;fill-opacity:0.90980392;stroke:#e8e8e8;stroke-width:0.01502036;stroke-linecap:round;stroke-miterlimit:4;stroke-dasharray:0.01502036, 0.06008146;stroke-dashoffset:0;stroke-opacity:1" />
        </g>
      </g>
    </g>
    <g
       id="g1054">
      <g
         id="g1046">
        <rect
           style="opacity:1;fill:#ea5455;fill-opacity:1;stroke:#e8e8e8;stroke-width:0.01137511;stroke-linecap:round;stroke-miterlimit:4;stroke-dasharray:0.01137511, 0.04550046000000000;stroke-dashoffset:0;stroke-opacity:1"
           id="rect985"
           width="54.244976"
           height="87.77021"
           x="-242.00714"
           y="39.867809" />
        <text
           xml:space="preserve"
           style="font-style:normal;font-weight:normal;font-size:23.3018856px;line-height:1.25;font-family:sans-serif;letter-spacing:0px;word-spacing:0px;fill:#ffffff;fill-opacity:1;stroke:none;stroke-width:0.58254713"
           x="-233.51086"
           y="65.616035"
           id="text983"><tspan
             sodipodi:role="line"
             id="tspan981"
             x="-233.51086"
             y="65.616035"
             style="font-style:normal;font-variant:normal;font-weight:bold;font-stretch:normal;font-family:'Source Sans Pro';-inkscape-font-specification:'Source Sans Pro Bold';fill:#ffffff;fill-opacity:1;stroke-width:0.58254713">101</tspan></text>
        <ellipse
           style="opacity:1;fill:#7367f0;fill-opacity:0.94117647;stroke:#e8e8e8;stroke-width:0.00570659;stroke-linecap:round;stroke-miterlimit:4;stroke-dasharray:0.00570659, 0.02282635000000000;stroke-dashoffset:0;stroke-opacity:1"
           id="path987"
           cx="-233.17445"
           cy="85.089264"
           rx="4.3663034"
           ry="4.2647614" />
      </g>
      <path
         inkscape:connector-curvature="0"
         id="path962"
         d="m -214.88492,13.159653 a 61.471989,61.471989 0 0 0 -61.4717,61.472214 61.471989,61.471989 0 0 0 19.26808,44.639643 l -8.58811,9.81956 19.59984,3.87056 19.59983,3.87057 -6.44767,-18.90943 -6.44818,-18.908927 -8.93434,10.216427 a 47.967005,48.344986 0 0 1 -14.54433,-34.598403 47.967005,48.344986 0 0 1 47.96658,-48.344851 47.967005,48.344986 0 0 1 47.9671,48.344851 47.967005,48.344986 0 0 1 -19.10943,38.561473 l 7.54218,10.88874 a 61.471989,61.471989 0 0 0 25.07237,-49.450213 61.471989,61.471989 0 0 0 -61.47222,-61.472214 z"
         style="opacity:1;fill:#7367f0;fill-opacity:1;stroke:#e8e8e8;stroke-width:0.01502036;stroke-linecap:round;stroke-miterlimit:4;stroke-dasharray:0.01502036, 0.06008146000000000;stroke-dashoffset:0;stroke-opacity:1" />
    </g>
    <g
       id="g1060"
       transform="matrix(1.1599679,0,0,1.1599679,33.830771,-15.517134)">
      <rect
         transform="rotate(37.762166)"
         ry="2.6726952"
         y="216.36382"
         x="-122.70133"
         height="5.3453903"
         width="19.777945"
         id="rect1026"
         style="opacity:1;fill:#ffffff;fill-opacity:1;stroke:#e8e8e8;stroke-width:0.01502036;stroke-linecap:round;stroke-miterlimit:4;stroke-dasharray:0.01502036, 0.06008146;stroke-dashoffset:0;stroke-opacity:1" />
      <rect
         transform="rotate(127.76217)"
         style="opacity:1;fill:#ffffff;fill-opacity:1;stroke:#e8e8e8;stroke-width:0.0198061;stroke-linecap:round;stroke-miterlimit:4;stroke-dasharray:0.0198061, 0.07922444;stroke-dashoffset:0;stroke-opacity:1"
         id="rect1028"
         width="34.419735"
         height="5.3406048"
         x="187.28708"
         y="102.92576"
         ry="2.6703024" />
    </g>
  </g>
</svg>
