<?xml version="1.0" encoding="UTF-8" standalone="no"?>
<!-- Created with Inkscape (http://www.inkscape.org/) -->

<svg
   xmlns:dc="http://purl.org/dc/elements/1.1/"
   xmlns:cc="http://creativecommons.org/ns#"
   xmlns:rdf="http://www.w3.org/1999/02/22-rdf-syntax-ns#"
   xmlns:svg="http://www.w3.org/2000/svg"
   xmlns="http://www.w3.org/2000/svg"
   xmlns:sodipodi="http://sodipodi.sourceforge.net/DTD/sodipodi-0.dtd"
   xmlns:inkscape="http://www.inkscape.org/namespaces/inkscape"
   width="210mm"
   height="297mm"
   viewBox="0 0 210 297"
   version="1.1"
   id="svg8"
   inkscape:export-filename="D:\PROJECT\Design\INCSPACE\Icon CHS\edit_icon32.png"
   inkscape:export-xdpi="66"
   inkscape:export-ydpi="66"
   inkscape:version="0.92.4 (5da689c313, 2019-01-14)"
   sodipodi:docname="CorrectionIcon.svg">
  <defs
     id="defs2">
    <clipPath
       clipPathUnits="userSpaceOnUse"
       id="clipPath129">
      <rect
         style="fill:#ffffff;fill-opacity:1;stroke:#fffff0;stroke-width:0.26499999;stroke-miterlimit:4;stroke-dasharray:none;stroke-opacity:0"
         id="rect131"
         width="14.079613"
         height="8.5044641"
         x="-88.23011"
         y="43.151188"
         ry="3.165554" />
    </clipPath>
    <clipPath
       clipPathUnits="userSpaceOnUse"
       id="clipPath129-0">
      <rect
         style="fill:#ffffff;fill-opacity:1;stroke:#fffff0;stroke-width:0.26499999;stroke-miterlimit:4;stroke-dasharray:none;stroke-opacity:0"
         id="rect131-9"
         width="14.079613"
         height="8.5044641"
         x="-88.23011"
         y="43.151188"
         ry="3.165554" />
    </clipPath>
  </defs>
  <sodipodi:namedview
     id="base"
     pagecolor="#ffffff"
     bordercolor="#666666"
     borderopacity="1.0"
     inkscape:pageopacity="0.0"
     inkscape:pageshadow="2"
     inkscape:zoom="0.11313708"
     inkscape:cx="10651.496"
     inkscape:cy="-2259.7204"
     inkscape:document-units="mm"
     inkscape:current-layer="layer2"
     showgrid="false"
     inkscape:snap-global="false"
     inkscape:window-width="1366"
     inkscape:window-height="715"
     inkscape:window-x="-8"
     inkscape:window-y="-8"
     inkscape:window-maximized="1"
     showguides="false"
     inkscape:guide-bbox="true">
    <sodipodi:guide
       position="121.50341,114.08884"
       orientation="0,1"
       id="guide848"
       inkscape:locked="false" />
    <sodipodi:guide
       position="204.98042,192.80338"
       orientation="1,0"
       id="guide856"
       inkscape:locked="false" />
    <sodipodi:guide
       position="2955.065,-691.22398"
       orientation="1,0"
       id="guide2562"
       inkscape:locked="false" />
  </sodipodi:namedview>
  <metadata
     id="metadata5">
    <rdf:RDF>
      <cc:Work
         rdf:about="">
        <dc:format>image/svg+xml</dc:format>
        <dc:type
           rdf:resource="http://purl.org/dc/dcmitype/StillImage" />
        <dc:title></dc:title>
      </cc:Work>
    </rdf:RDF>
  </metadata>
  <g
     inkscape:label="Layer 1"
     inkscape:groupmode="layer"
     id="layer1" />
  <g
     inkscape:groupmode="layer"
     id="layer2"
     inkscape:label="Layer 2">
    <g
       id="g2180">
      <rect
         ry="9.8553143"
         y="543.32721"
         x="2425.8987"
         height="712.00171"
         width="712.00171"
         id="rect2100"
         style="opacity:1;fill:#008000;fill-opacity:0;stroke:#7367f0;stroke-width:0.0153938;stroke-linecap:round;stroke-miterlimit:4;stroke-dasharray:0.01539381, 0.06157526000000000;stroke-dashoffset:0;stroke-opacity:1" />
      <g
         transform="translate(-0.06326386,5.6830715)"
         id="g2165">
        <g
           id="g3220"
           transform="translate(-342.79903,-469.89587)"
           inkscape:export-xdpi="2.5065598"
           inkscape:export-ydpi="2.5065598">
          <g
             id="g2098"
             transform="translate(0,19.84375)">
            <rect
               style="opacity:1;fill:#7367f0;fill-opacity:1;stroke:#fffff0;stroke-width:0.91863704;stroke-miterlimit:4;stroke-dasharray:none;stroke-opacity:0"
               id="rect829-9"
               width="398.673"
               height="257.96487"
               x="2922.054"
               y="1200.1471"
               ry="9.6162243"
               inkscape:export-xdpi="4.065412"
               inkscape:export-ydpi="4.065412" />
            <rect
               style="opacity:1;fill:#ffffff;fill-opacity:1;stroke:#fffff0;stroke-width:1.07376993;stroke-miterlimit:4;stroke-dasharray:none;stroke-opacity:0"
               id="rect831-4"
               width="399.30011"
               height="42.848328"
               x="2921.9475"
               y="1245.2161"
               ry="0"
               inkscape:export-xdpi="4.065412"
               inkscape:export-ydpi="4.065412" />
            <circle
               style="opacity:1;fill:#ea5455;fill-opacity:1;stroke:#fffff0;stroke-width:1.40610218;stroke-miterlimit:4;stroke-dasharray:none;stroke-opacity:0"
               id="path833-4"
               cx="3230.6777"
               cy="1438.7444"
               r="91.375191"
               inkscape:export-xdpi="4.065412"
               inkscape:export-ydpi="4.065412" />
            <text
               xml:space="preserve"
               style="font-style:normal;font-variant:normal;font-weight:bold;font-stretch:normal;font-size:134.11557007px;line-height:1.25;font-family:'Segoe UI';-inkscape-font-specification:'Segoe UI Bold';letter-spacing:0px;word-spacing:0px;opacity:1;fill:#ffffff;fill-opacity:0.94117647;stroke:none;stroke-width:3.35288906"
               x="3191.1897"
               y="1484.9449"
               id="text837-7"
               inkscape:export-xdpi="4.065412"
               inkscape:export-ydpi="4.065412"><tspan
                 sodipodi:role="line"
                 id="tspan835-7"
                 x="3191.1897"
                 y="1484.9449"
                 style="font-style:normal;font-variant:normal;font-weight:bold;font-stretch:normal;font-family:'Segoe UI';-inkscape-font-specification:'Segoe UI Bold';fill:#ffffff;fill-opacity:0.94117647;stroke-width:3.35288906">$</tspan></text>
            <path
               style="opacity:1;fill:#ea5455;fill-opacity:1;stroke:#fffff0;stroke-width:0.71894199;stroke-miterlimit:4;stroke-dasharray:none;stroke-opacity:0"
               d="m 2996.5706,1464.7528 -21.124,9.0304 -21.1241,9.0305 21.276,8.8372 21.2782,8.8353 -0.059,-6.8084 h 92.1561 v -22.8146 h -92.3503 z"
               id="path839-1"
               inkscape:connector-curvature="0"
               inkscape:export-xdpi="4.065412"
               inkscape:export-ydpi="4.065412" />
            <path
               inkscape:connector-curvature="0"
               id="path846-6"
               d="m 3089.7756,1494.4837 21.1241,9.0304 21.1241,9.0305 -21.2761,8.8371 -21.2782,8.8353 0.059,-6.8083 h -92.1558 v -22.8147 h 92.3503 z"
               style="opacity:1;fill:#ea5455;fill-opacity:1;stroke:#fffff0;stroke-width:0.71894199;stroke-miterlimit:4;stroke-dasharray:none;stroke-opacity:0"
               inkscape:export-xdpi="4.065412"
               inkscape:export-ydpi="4.065412" />
          </g>
        </g>
        <path
           inkscape:connector-curvature="0"
           style="opacity:1;fill:#ea5455;fill-opacity:1;stroke:#e8e8e8;stroke-width:0.01502036;stroke-linecap:round;stroke-miterlimit:4;stroke-dasharray:0.01502036, 0.06008146;stroke-dashoffset:0;stroke-opacity:1"
           d="m 2779.5336,544.34247 c -169.501,0.2562 -310.8313,133.44985 -319.2507,304.65945 -0.5335,12.40023 -0.3458,24.8208 0.5617,37.19928 l -34.6181,-1.70222 33.0368,55.46018 33.0378,55.46016 38.3201,-51.95133 38.3196,-51.95083 -35.0738,-1.72498 c -1.3252,-12.36284 -1.7184,-24.80794 -1.1761,-37.22976 6.7244,-136.7427 123.0272,-242.14293 259.7702,-235.41871 98.6454,4.85082 180.975,66.72996 216.6716,152.16799 a 105.92787,105.92787 0 0 0 -0.1313,0.17465 51.337543,51.337543 0 0 0 0.2226,0.0419 c 0.01,0.0106 0.01,0.0209 0.013,0.0315 a 104.06807,104.06807 0 0 1 0.021,-0.0254 51.337543,51.337543 0 0 0 11.865,1.35806 51.337543,51.337543 0 0 0 49.9245,-41.67034 l -0.3757,0.003 c -48.682,-104.08581 -151.8928,-178.45283 -274.6502,-184.48951 -5.5229,-0.27159 -11.0201,-0.40153 -16.488,-0.39327 z"
           id="path2536" />
        <path
           id="path2055"
           d="m 2784.3921,1242.9445 c 169.501,-0.2562 310.8313,-133.4499 319.2507,-304.65837 0.5335,-12.40023 0.3458,-24.8208 -0.5617,-37.19928 l 34.618,1.70222 -33.0367,-55.46018 -33.0378,-55.46016 -38.3201,51.95133 -38.3197,51.95083 35.0739,1.72498 c 1.3252,12.36284 1.7183,24.80794 1.1761,37.22976 -6.7245,136.74157 -123.0273,242.14187 -259.7703,235.41757 -98.6454,-4.8508 -180.975,-66.7299 -216.6715,-152.168 a 105.92787,105.92787 0 0 0 0.1312,-0.1746 51.337543,51.337543 0 0 0 -0.2225,-0.042 c 0,-0.011 -0.01,-0.021 -0.014,-0.031 a 104.06807,104.06807 0 0 1 -0.021,0.025 51.337543,51.337543 0 0 0 -11.865,-1.3581 51.337543,51.337543 0 0 0 -49.9245,41.6704 h 0.3757 c 48.682,104.0858 151.8928,178.4528 274.6502,184.4895 5.5229,0.2716 11.0202,0.4015 16.4881,0.3933 z"
           style="opacity:1;fill:#ea5455;fill-opacity:1;stroke:#e8e8e8;stroke-width:0.01502036;stroke-linecap:round;stroke-miterlimit:4;stroke-dasharray:0.01502036, 0.06008146;stroke-dashoffset:0;stroke-opacity:1"
           inkscape:connector-curvature="0" />
      </g>
    </g>
  </g>
</svg>
