<?xml version="1.0" encoding="UTF-8" standalone="no"?>
<!-- Created with Inkscape (http://www.inkscape.org/) -->

<svg
   xmlns:dc="http://purl.org/dc/elements/1.1/"
   xmlns:cc="http://creativecommons.org/ns#"
   xmlns:rdf="http://www.w3.org/1999/02/22-rdf-syntax-ns#"
   xmlns:svg="http://www.w3.org/2000/svg"
   xmlns="http://www.w3.org/2000/svg"
   xmlns:sodipodi="http://sodipodi.sourceforge.net/DTD/sodipodi-0.dtd"
   xmlns:inkscape="http://www.inkscape.org/namespaces/inkscape"
   width="210mm"
   height="297mm"
   viewBox="0 0 210 297"
   version="1.1"
   id="svg8"
   inkscape:version="0.92.4 (5da689c313, 2019-01-14)"
   sodipodi:docname="DeleteIcon.svg">
  <defs
     id="defs2" />
  <sodipodi:namedview
     id="base"
     pagecolor="#ffffff"
     bordercolor="#666666"
     borderopacity="1.0"
     inkscape:pageopacity="0.0"
     inkscape:pageshadow="2"
     inkscape:zoom="0.12374369"
     inkscape:cx="-1269.211"
     inkscape:cy="458.62678"
     inkscape:document-units="mm"
     inkscape:current-layer="layer1"
     showgrid="false"
     inkscape:snap-global="false"
     showguides="false"
     inkscape:window-width="1366"
     inkscape:window-height="715"
     inkscape:window-x="-8"
     inkscape:window-y="-8"
     inkscape:window-maximized="1" />
  <metadata
     id="metadata5">
    <rdf:RDF>
      <cc:Work
         rdf:about="">
        <dc:format>image/svg+xml</dc:format>
        <dc:type
           rdf:resource="http://purl.org/dc/dcmitype/StillImage" />
        <dc:title></dc:title>
      </cc:Work>
    </rdf:RDF>
  </metadata>
  <g
     inkscape:label="Layer 1"
     inkscape:groupmode="layer"
     id="layer1" />
  <g
     inkscape:groupmode="layer"
     id="layer2"
     inkscape:label="Layer 2">
    <g
       id="g874"
       inkscape:export-xdpi="5.4151096"
       inkscape:export-ydpi="5.4151096">
      <g
         transform="matrix(2.7331549,0,0,2.2061533,193.98958,-69.248101)"
         id="g833">
        <path
           style="opacity:1;fill:#7367f0;fill-opacity:1;stroke:#e8e8e8;stroke-width:0.01502036;stroke-linecap:round;stroke-miterlimit:4;stroke-dasharray:0.01502036, 0.06008146;stroke-dashoffset:0;stroke-opacity:1"
           d="m -94.820921,89.868932 c -5.182349,0 -9.354469,4.172111 -9.354469,9.354468 v 88.63645 c 0,5.18235 4.17212,9.35447 9.354469,9.35447 h 75.785038 c 5.182356,0 9.3544679,-4.17212 9.3544679,-9.35447 V 99.2234 c 0,-5.182357 -4.1721119,-9.354468 -9.3544679,-9.354468 h -5.194515 V 183.05032 H -89.626922 V 89.868932 Z"
           id="rect815"
           inkscape:connector-curvature="0" />
        <rect
           style="opacity:1;fill:#7367f0;fill-opacity:1;stroke:#e8e8e8;stroke-width:0.01502036;stroke-linecap:round;stroke-miterlimit:4;stroke-dasharray:0.01502036, 0.06008146;stroke-dashoffset:0;stroke-opacity:1"
           id="rect823"
           width="109.58051"
           height="9.8889723"
           x="-111.71866"
           y="87.995224"
           ry="2.9399648" />
      </g>
      <rect
         transform="matrix(0.99450662,0.10467368,-0.11101978,0.9938182,0,0)"
         inkscape:transform-center-y="-4.9716643"
         inkscape:transform-center-x="50.808619"
         style="opacity:1;fill:#7367f0;fill-opacity:1;stroke:#e8e8e8;stroke-width:0.04044621;stroke-linecap:round;stroke-miterlimit:4;stroke-dasharray:0.04044621, 0.1617849;stroke-dashoffset:0;stroke-opacity:1"
         id="rect825"
         width="299.39627"
         height="26.244186"
         x="-101.93185"
         y="76.043541"
         ry="7.8023262" />
      <g
         transform="matrix(2.7331218,0,0,2.6529385,192.22396,-133.00482)"
         id="g846">
        <rect
           transform="matrix(-0.70781241,0.70640043,-0.69920067,-0.71492544,0,0)"
           inkscape:transform-center-y="-0.75516748"
           inkscape:transform-center-x="-0.34183041"
           style="opacity:1;fill:#ea5455;fill-opacity:1;stroke:#e8e8e8;stroke-width:0.0106251;stroke-linecap:round;stroke-miterlimit:4;stroke-dasharray:0.0106251, 0.0425004;stroke-dashoffset:0;stroke-opacity:1"
           id="rect827"
           width="54.810734"
           height="9.892911"
           x="112.56071"
           y="-66.140099"
           ry="2.9411356" />
        <rect
           ry="2.9411356"
           y="-145.53905"
           x="-90.018776"
           height="9.892911"
           width="54.810734"
           id="rect829"
           style="opacity:1;fill:#ea5455;fill-opacity:1;stroke:#e8e8e8;stroke-width:0.0106251;stroke-linecap:round;stroke-miterlimit:4;stroke-dasharray:0.0106251, 0.0425004;stroke-dashoffset:0;stroke-opacity:1"
           inkscape:transform-center-x="-0.75517579"
           inkscape:transform-center-y="0.34182771"
           transform="matrix(-0.70640043,-0.70781241,0.71492544,-0.69920067,0,0)" />
      </g>
    </g>
    <path
       style="opacity:1;fill:#7367f0;fill-opacity:1;stroke:#e8e8e8;stroke-width:0.05829441;stroke-linecap:round;stroke-miterlimit:4;stroke-dasharray:0.05829441, 0.23317768999999999;stroke-dashoffset:0;stroke-opacity:1"
       d="M 1258.8379 779.66406 C 1242.071 779.66406 1228.5723 793.16088 1228.5723 809.92773 L 1228.5723 1863.6816 C 1228.5723 1880.4485 1242.071 1893.9473 1258.8379 1893.9473 L 1626.2617 1893.9473 A 370.72816 370.72816 0 0 1 1622.3027 1842.7578 A 370.72816 370.72816 0 0 1 1632.3008 1758.8906 L 1383.9609 1758.8906 C 1371.2585 1758.8906 1361.0332 1748.6653 1361.0332 1735.9629 L 1361.0332 937.64844 C 1361.0332 924.94601 1371.2585 914.71875 1383.9609 914.71875 L 1930.3242 914.71875 C 1943.0266 914.71875 1953.2539 924.94601 1953.2539 937.64844 L 1953.2539 1474.6035 A 370.72816 370.72816 0 0 1 1993.0312 1472.0312 A 370.72816 370.72816 0 0 1 2085.7129 1484.2793 L 2085.7129 809.92773 C 2085.7129 793.16088 2072.2161 779.66406 2055.4492 779.66406 L 1258.8379 779.66406 z "
       transform="scale(0.26458333)"
       id="rect876" />
    <path
       style="opacity:1;fill:#7367f0;fill-opacity:1;stroke:#e8e8e8;stroke-width:0.01100899;stroke-linecap:round;stroke-miterlimit:4;stroke-dasharray:0.01100899, 0.04403599000000000;stroke-dashoffset:0;stroke-opacity:1"
       d="m 438.45231,313.96768 a 75.372001,39.693312 0 0 0 -75.37215,39.6937 75.372001,39.693312 0 0 0 75.37215,39.69318 75.372001,39.693312 0 0 0 75.37214,-39.69318 75.372001,39.693312 0 0 0 -75.37214,-39.6937 z m 0,12.84936 a 50.972786,26.843905 0 0 1 50.97258,26.84434 50.972786,26.843905 0 0 1 -50.97258,26.84385 50.972786,26.843905 0 0 1 -50.97262,-26.84385 50.972786,26.843905 0 0 1 50.97262,-26.84434 z"
       id="path881"
       inkscape:connector-curvature="0" />
    <ellipse
       style="opacity:1;fill:#7367f0;fill-opacity:1;stroke:#e8e8e8;stroke-width:0.01332299;stroke-linecap:round;stroke-miterlimit:4;stroke-dasharray:0.01332299, 0.05329199000000000;stroke-dashoffset:0;stroke-opacity:1"
       id="path886"
       cx="438.4523"
       cy="353.66113"
       rx="19.277634"
       ry="24.474213" />
    <rect
       style="opacity:1;fill:#ea5455;fill-opacity:1;stroke:#e8e8e8;stroke-width:0.01502036;stroke-linecap:round;stroke-miterlimit:4;stroke-dasharray:0.01502036, 0.06008146000000000;stroke-dashoffset:0;stroke-opacity:1"
       id="rect888"
       width="21.381561"
       height="175.32881"
       x="542.6778"
       y="-193.02014"
       ry="10.690781"
       transform="rotate(49.669604)" />
    <g
       id="g910"
       transform="translate(-1.6105062e-6,-1.6874881e-6)">
      <g
         transform="translate(-138.78211,39.158331)"
         id="g902">
        <path
           inkscape:connector-curvature="0"
           style="opacity:1;fill:#7389f0;fill-opacity:1;stroke:#e8e8e8;stroke-width:0.05676987;stroke-linecap:round;stroke-miterlimit:4;stroke-dasharray:0.05676986, 0.22707953;stroke-dashoffset:0;stroke-opacity:1"
           d="m 2545.7148,1276.8047 a 351.42856,351.42856 0 0 0 -351.4296,351.4297 351.42856,351.42856 0 0 0 0.049,1.3808 h 702.7402 a 351.42856,351.42856 0 0 0 0.068,-1.3808 351.42856,351.42856 0 0 0 -351.4278,-351.4297 z"
           transform="scale(0.26458333)"
           id="path890" />
        <rect
           y="446.5361"
           x="580.57623"
           height="15.434829"
           width="185.95271"
           id="rect898"
           style="opacity:1;fill:#7389f0;fill-opacity:1;stroke:#e8e8e8;stroke-width:0.01502036;stroke-linecap:round;stroke-miterlimit:4;stroke-dasharray:0.01502036, 0.06008146;stroke-dashoffset:0;stroke-opacity:1" />
      </g>
      <circle
         r="15.501633"
         cy="358.43979"
         cx="534.53906"
         id="path904"
         style="opacity:1;fill:#7389f0;fill-opacity:1;stroke:#e8e8e8;stroke-width:0.01502036;stroke-linecap:round;stroke-miterlimit:4;stroke-dasharray:0.01502036, 0.06008146;stroke-dashoffset:0;stroke-opacity:1" />
    </g>
    <circle
       style="opacity:1;fill:#00ff00;fill-opacity:1;stroke:#e8e8e8;stroke-width:0.01502036;stroke-linecap:round;stroke-miterlimit:4;stroke-dasharray:0.01502036, 0.06008146;stroke-dashoffset:0;stroke-opacity:1"
       id="path920"
       cx="536.53717"
       cy="379.5878"
       r="42.144348" />
  </g>
</svg>
