<?xml version="1.0" encoding="UTF-8" standalone="no"?>
<!-- Created with Inkscape (http://www.inkscape.org/) -->

<svg
   xmlns:dc="http://purl.org/dc/elements/1.1/"
   xmlns:cc="http://creativecommons.org/ns#"
   xmlns:rdf="http://www.w3.org/1999/02/22-rdf-syntax-ns#"
   xmlns:svg="http://www.w3.org/2000/svg"
   xmlns="http://www.w3.org/2000/svg"
   xmlns:sodipodi="http://sodipodi.sourceforge.net/DTD/sodipodi-0.dtd"
   xmlns:inkscape="http://www.inkscape.org/namespaces/inkscape"
   width="210mm"
   height="297mm"
   viewBox="0 0 210 297"
   version="1.1"
   id="svg8"
   inkscape:export-filename="D:\PROJECT\Design\INCSPACE\Icon CHS\wait_list_icon64.png"
   inkscape:export-xdpi="2.6919518"
   inkscape:export-ydpi="2.6919518"
   inkscape:version="0.92.4 (5da689c313, 2019-01-14)"
   sodipodi:docname="WaitList.svg">
  <defs
     id="defs2">
    <clipPath
       clipPathUnits="userSpaceOnUse"
       id="clipPath129">
      <rect
         style="fill:#ffffff;fill-opacity:1;stroke:#fffff0;stroke-width:0.26499999;stroke-miterlimit:4;stroke-dasharray:none;stroke-opacity:0"
         id="rect131"
         width="14.079613"
         height="8.5044641"
         x="-88.23011"
         y="43.151188"
         ry="3.165554" />
    </clipPath>
    <clipPath
       clipPathUnits="userSpaceOnUse"
       id="clipPath129-0">
      <rect
         style="fill:#ffffff;fill-opacity:1;stroke:#fffff0;stroke-width:0.26499999;stroke-miterlimit:4;stroke-dasharray:none;stroke-opacity:0"
         id="rect131-9"
         width="14.079613"
         height="8.5044641"
         x="-88.23011"
         y="43.151188"
         ry="3.165554" />
    </clipPath>
  </defs>
  <sodipodi:namedview
     id="base"
     pagecolor="#ffffff"
     bordercolor="#666666"
     borderopacity="1.0"
     inkscape:pageopacity="0.0"
     inkscape:pageshadow="2"
     inkscape:zoom="0.01"
     inkscape:cx="11503.579"
     inkscape:cy="-5541.4227"
     inkscape:document-units="mm"
     inkscape:current-layer="layer2"
     showgrid="false"
     inkscape:snap-global="false"
     inkscape:window-width="1366"
     inkscape:window-height="715"
     inkscape:window-x="-8"
     inkscape:window-y="-8"
     inkscape:window-maximized="1"
     showguides="true"
     inkscape:guide-bbox="true">
    <sodipodi:guide
       position="121.50341,114.08884"
       orientation="0,1"
       id="guide848"
       inkscape:locked="false" />
    <sodipodi:guide
       position="204.98042,192.80338"
       orientation="1,0"
       id="guide856"
       inkscape:locked="false" />
  </sodipodi:namedview>
  <metadata
     id="metadata5">
    <rdf:RDF>
      <cc:Work
         rdf:about="">
        <dc:format>image/svg+xml</dc:format>
        <dc:type
           rdf:resource="http://purl.org/dc/dcmitype/StillImage" />
        <dc:title></dc:title>
      </cc:Work>
    </rdf:RDF>
  </metadata>
  <g
     inkscape:label="Layer 1"
     inkscape:groupmode="layer"
     id="layer1" />
  <g
     inkscape:groupmode="layer"
     id="layer2"
     inkscape:label="Layer 2">
    <g
       id="g1825">
      <path
         style="opacity:1;fill:#7367f0;fill-opacity:1;stroke:#e8e8e8;stroke-width:0.01502036;stroke-linecap:round;stroke-miterlimit:4;stroke-dasharray:0.01502036, 0.06008146;stroke-dashoffset:0;stroke-opacity:1"
         d="m 1507.3571,535.12494 c -28.8903,0 -52.1488,23.25844 -52.1488,52.14877 v 418.25459 c 0,28.8903 23.2585,52.1487 52.1488,52.1487 h 232.5119 a 179.42058,179.42058 0 0 1 -16.7701,-75.24086 179.42058,179.42058 0 0 1 179.4206,-179.42057 179.42058,179.42058 0 0 1 75.2409,16.75815 V 587.27371 c 0,-28.89033 -23.2584,-52.14877 -52.1488,-52.14877 z"
         id="rect1665"
         inkscape:connector-curvature="0" />
      <path
         id="rect1667"
         transform="scale(0.26458333)"
         d="M 5729.8027 2384.9043 L 5729.8027 3767.7168 L 6518.998 3767.7168 A 671.74234 671.74234 0 0 1 6516.6484 3714.7168 A 671.74234 671.74234 0 0 1 7188.3906 3042.9746 A 671.74234 671.74234 0 0 1 7245.1973 3045.8184 L 7245.1973 2384.9043 L 5729.8027 2384.9043 z "
         style="opacity:1;fill:#ffffff;fill-opacity:1;stroke:#e8e8e8;stroke-width:0.0416098;stroke-linecap:round;stroke-miterlimit:4;stroke-dasharray:0.0416098, 0.16643921;stroke-dashoffset:0;stroke-opacity:1" />
      <g
         transform="translate(0.41353558,28.816754)"
         id="g1675">
        <rect
           style="opacity:1;fill:#7367f0;fill-opacity:1;stroke:#e8e8e8;stroke-width:0.01502036;stroke-linecap:round;stroke-miterlimit:4;stroke-dasharray:0.01502036, 0.06008146;stroke-dashoffset:0;stroke-opacity:1"
           id="rect1669"
           width="224.89583"
           height="54.570312"
           x="1645.3776"
           y="678.99219"
           ry="27.285156" />
        <ellipse
           style="opacity:1;fill:#7367f0;fill-opacity:1;stroke:#e8e8e8;stroke-width:0.01387781;stroke-linecap:round;stroke-miterlimit:4;stroke-dasharray:0.01387781, 0.05551125;stroke-dashoffset:0;stroke-opacity:1"
           id="path1671"
           cx="1587.9132"
           cy="706.02612"
           rx="26.045492"
           ry="27.447924" />
      </g>
      <path
         id="rect1677"
         d="m 1673.0762,790.18949 c -15.116,0 -27.2852,12.16917 -27.2852,27.28516 0,15.11596 12.1692,27.28515 27.2852,27.28515 H 1788.79 a 177.73446,177.73446 0 0 1 14.2896,-10.54819 177.73446,177.73446 0 0 1 0,-0.004 177.73446,177.73446 0 0 1 15.1955,-9.02374 177.73446,177.73446 0 0 1 0.094,-0.0537 177.73446,177.73446 0 0 1 15.8357,-7.37629 177.73446,177.73446 0 0 1 0.3013,-0.13489 177.73446,177.73446 0 0 1 16.2471,-5.672 177.73446,177.73446 0 0 1 0.5669,-0.1886 177.73446,177.73446 0 0 1 16.3917,-3.93983 177.73446,177.73446 0 0 1 1.1271,-0.2532 c -3.95,-10.1885 -13.8251,-17.3762 -25.4419,-17.3762 z"
         style="opacity:1;fill:#7367f0;fill-opacity:1;stroke:#e8e8e8;stroke-width:0.01502036;stroke-linecap:round;stroke-miterlimit:4;stroke-dasharray:0.01502036, 0.06008146;stroke-dashoffset:0;stroke-opacity:1"
         inkscape:connector-curvature="0" />
      <ellipse
         style="opacity:1;fill:#7367f0;fill-opacity:1;stroke:#e8e8e8;stroke-width:0.01387781;stroke-linecap:round;stroke-miterlimit:4;stroke-dasharray:0.01387781, 0.05551125;stroke-dashoffset:0;stroke-opacity:1"
         id="ellipse1679"
         cx="1588.3268"
         cy="817.22333"
         rx="26.045492"
         ry="27.447924" />
      <path
         id="rect1689"
         d="m 1673.0762,872.17725 c -15.116,0 -27.2852,12.16917 -27.2852,27.28516 0,15.11596 12.1692,27.28515 27.2852,27.28515 h 59.4893 a 177.73446,177.73446 0 0 1 29.39,-54.57031 z"
         style="opacity:1;fill:#7367f0;fill-opacity:1;stroke:#e8e8e8;stroke-width:0.01502036;stroke-linecap:round;stroke-miterlimit:4;stroke-dasharray:0.01502036, 0.06008146;stroke-dashoffset:0;stroke-opacity:1"
         inkscape:connector-curvature="0" />
      <ellipse
         style="opacity:1;fill:#7367f0;fill-opacity:1;stroke:#e8e8e8;stroke-width:0.01387781;stroke-linecap:round;stroke-miterlimit:4;stroke-dasharray:0.01387781, 0.05551125;stroke-dashoffset:0;stroke-opacity:1"
         id="ellipse1691"
         cx="1588.3268"
         cy="899.21124"
         rx="26.045492"
         ry="27.447924" />
      <g
         transform="matrix(1.4687667,0,0,1.4687667,-1247.4484,-370.81543)"
         id="g1721">
        <path
           style="opacity:1;fill:#7367f0;fill-opacity:1;stroke:#e8e8e8;stroke-width:0.01562458;stroke-linecap:round;stroke-miterlimit:4;stroke-dasharray:0.01562458, 0.06249835;stroke-dashoffset:0;stroke-opacity:1"
           d="m 2145.3946,814.57198 a 105.82171,105.82171 0 0 0 -105.8215,105.82196 105.82171,105.82171 0 0 0 105.8215,105.82146 105.82171,105.82171 0 0 0 105.822,-105.82146 105.82171,105.82171 0 0 0 -105.822,-105.82196 z m 0,29.35015 a 76.471671,76.471671 0 0 1 76.4718,76.47181 76.471671,76.471671 0 0 1 -76.4718,76.4718 76.471671,76.471671 0 0 1 -76.4713,-76.4718 76.471671,76.471671 0 0 1 76.4713,-76.47181 z"
           id="path1706"
           inkscape:connector-curvature="0" />
        <rect
           style="opacity:1;fill:#ff0000;fill-opacity:1;stroke:#e8e8e8;stroke-width:0.00918245;stroke-linecap:round;stroke-miterlimit:4;stroke-dasharray:0.00918245, 0.03672981;stroke-dashoffset:0;stroke-opacity:1"
           id="rect1711"
           width="14.888651"
           height="49.009953"
           x="2137.3342"
           y="873.29266"
           ry="4.9421802" />
        <circle
           style="opacity:1;fill:#ff0000;fill-opacity:1;stroke:#e8e8e8;stroke-width:0.01502036;stroke-linecap:round;stroke-miterlimit:4;stroke-dasharray:0.01502036, 0.06008146;stroke-dashoffset:0;stroke-opacity:1"
           id="path1713"
           cx="2145.3948"
           cy="920.39368"
           r="11.575521" />
        <rect
           ry="6.1093559"
           y="-2322.8625"
           x="-572.18079"
           height="60.584446"
           width="14.887625"
           id="rect1715"
           style="opacity:1;fill:#ff0000;fill-opacity:1;stroke:#e8e8e8;stroke-width:0.01020897;stroke-linecap:round;stroke-miterlimit:4;stroke-dasharray:0.01020897, 0.0408359;stroke-dashoffset:0;stroke-opacity:1"
           inkscape:transform-center-y="17.005407"
           transform="rotate(127.22303)"
           inkscape:transform-center-x="-22.385296" />
      </g>
    </g>
  </g>
</svg>
