<?xml version="1.0" encoding="UTF-8" standalone="no"?>
<!-- Created with Inkscape (http://www.inkscape.org/) -->

<svg
   xmlns:dc="http://purl.org/dc/elements/1.1/"
   xmlns:cc="http://creativecommons.org/ns#"
   xmlns:rdf="http://www.w3.org/1999/02/22-rdf-syntax-ns#"
   xmlns:svg="http://www.w3.org/2000/svg"
   xmlns="http://www.w3.org/2000/svg"
   xmlns:sodipodi="http://sodipodi.sourceforge.net/DTD/sodipodi-0.dtd"
   xmlns:inkscape="http://www.inkscape.org/namespaces/inkscape"
   width="210mm"
   height="297mm"
   viewBox="0 0 210 297"
   version="1.1"
   id="svg8"
   inkscape:export-filename="D:\PROJECT\Design\INCSPACE\Icon CHS\edit_icon32.png"
   inkscape:export-xdpi="66"
   inkscape:export-ydpi="66"
   inkscape:version="0.92.4 (5da689c313, 2019-01-14)"
   sodipodi:docname="WalkInIcon.svg">
  <defs
     id="defs2">
    <clipPath
       clipPathUnits="userSpaceOnUse"
       id="clipPath129">
      <rect
         style="fill:#ffffff;fill-opacity:1;stroke:#fffff0;stroke-width:0.26499999;stroke-miterlimit:4;stroke-dasharray:none;stroke-opacity:0"
         id="rect131"
         width="14.079613"
         height="8.5044641"
         x="-88.23011"
         y="43.151188"
         ry="3.165554" />
    </clipPath>
    <clipPath
       clipPathUnits="userSpaceOnUse"
       id="clipPath129-0">
      <rect
         style="fill:#ffffff;fill-opacity:1;stroke:#fffff0;stroke-width:0.26499999;stroke-miterlimit:4;stroke-dasharray:none;stroke-opacity:0"
         id="rect131-9"
         width="14.079613"
         height="8.5044641"
         x="-88.23011"
         y="43.151188"
         ry="3.165554" />
    </clipPath>
  </defs>
  <sodipodi:namedview
     id="base"
     pagecolor="#ffffff"
     bordercolor="#666666"
     borderopacity="1.0"
     inkscape:pageopacity="0.0"
     inkscape:pageshadow="2"
     inkscape:zoom="0.028284271"
     inkscape:cx="168.37979"
     inkscape:cy="-364.75069"
     inkscape:document-units="mm"
     inkscape:current-layer="layer2"
     showgrid="false"
     inkscape:snap-global="false"
     inkscape:window-width="1366"
     inkscape:window-height="715"
     inkscape:window-x="-8"
     inkscape:window-y="-8"
     inkscape:window-maximized="1"
     showguides="true"
     inkscape:guide-bbox="true">
    <sodipodi:guide
       position="121.50341,114.08884"
       orientation="0,1"
       id="guide848"
       inkscape:locked="false" />
    <sodipodi:guide
       position="204.98042,192.80338"
       orientation="1,0"
       id="guide856"
       inkscape:locked="false" />
  </sodipodi:namedview>
  <metadata
     id="metadata5">
    <rdf:RDF>
      <cc:Work
         rdf:about="">
        <dc:format>image/svg+xml</dc:format>
        <dc:type
           rdf:resource="http://purl.org/dc/dcmitype/StillImage" />
        <dc:title />
      </cc:Work>
    </rdf:RDF>
  </metadata>
  <g
     inkscape:label="Layer 1"
     inkscape:groupmode="layer"
     id="layer1">
    <rect
       style="opacity:1;fill:#7367f0;fill-opacity:1;stroke:#e8e8e8;stroke-width:0.01038394;stroke-linecap:round;stroke-miterlimit:4;stroke-dasharray:0.01038394, 0.04153577;stroke-dashoffset:0;stroke-opacity:1"
       id="rect2533"
       width="341.44125"
       height="322.73239"
       x="1660.4097"
       y="802.88837"
       ry="0" />
  </g>
  <g
     inkscape:groupmode="layer"
     id="layer2"
     inkscape:label="Layer 2">
    <g
       id="g2531"
       transform="translate(1290.9118,477.07611)">
      <rect
         inkscape:export-ydpi="1.5899131"
         inkscape:export-xdpi="1.5899131"
         ry="0"
         y="308.04578"
         x="500.45605"
         height="340.54956"
         width="210.43567"
         id="rect851"
         style="opacity:1;fill:#322d69;fill-opacity:1;stroke:#fffff0;stroke-width:0.30767885;stroke-miterlimit:4;stroke-dasharray:none;stroke-opacity:0" />
      <path
         id="rect853"
         transform="scale(0.26458333)"
         d="m 2688.0918,1168.4941 -657.707,110.0157 0.068,528.1093 -0.068,528.1094 657.707,110.0137 v -435.1738 -405.8985 z"
         style="opacity:1;fill:#ffffff;fill-opacity:0.99547514;stroke:#fffff0;stroke-width:0.85717267;stroke-miterlimit:4;stroke-dasharray:none;stroke-opacity:0"
         inkscape:connector-curvature="0" />
      <circle
         inkscape:export-ydpi="1.5899131"
         inkscape:export-xdpi="1.5899131"
         r="12.894223"
         cy="478.00104"
         cx="565.92188"
         id="path858"
         style="opacity:1;fill:#322d69;fill-opacity:1;stroke:#fffff0;stroke-width:0.18367015;stroke-miterlimit:4;stroke-dasharray:none;stroke-opacity:0" />
    </g>
    <path
       style="opacity:1;fill:#ea5455;fill-opacity:1;stroke:#e8e8e8;stroke-width:0.01769286;stroke-linecap:round;stroke-miterlimit:4;stroke-dasharray:0.01769286, 0.07077146;stroke-dashoffset:0;stroke-opacity:1"
       d="m 1733.8909,823.52127 a 34.433823,34.433823 0 0 0 -34.4336,34.43346 34.433823,34.433823 0 0 0 20.8648,31.63832 c -7.1368,2.76361 -12.2421,9.53475 -12.5802,17.58439 -0.6813,0.59315 -1.3154,1.2621 -1.8888,2.00631 l -42.8891,55.6647 c -4.6542,6.04049 -3.5381,14.64982 2.5024,19.30399 6.0405,4.65417 14.6498,3.53807 19.304,-2.5024 l 22.9496,-29.78539 v 57.11025 c 0,2.8895 0.6187,5.6273 1.7232,8.097 l -21.9853,86.97 c -2.506,9.9131 1.2014,19.3151 8.3125,21.0809 7.1111,1.7657 14.8532,-4.7934 17.3592,-14.7065 l 20.6456,-81.6687 h 2.3514 l 24.2614,31.4879 0.4164,51.3289 c 0.046,5.609 4.5976,10.1032 10.2068,10.0765 l 6.204,-0.03 c 5.6091,-0.027 10.088,-4.5637 10.0425,-10.1727 l -0.4201,-51.6886 c 0,-0.4227 -0.035,-0.8381 -0.088,-1.2466 0.7152,-3.6071 -0.074,-7.4906 -2.5054,-10.6458 l -25.1744,-32.6737 c 0.6411,-1.9517 0.9921,-4.0371 0.9921,-6.2088 v -71.40577 l 50.8267,6.98372 c 7.5546,1.03794 14.472,-4.20814 15.51,-11.76271 1.0379,-7.55457 -4.2082,-14.47197 -11.7627,-15.50992 l -54.574,-7.49808 v -1.75371 c 0,-8.43607 -5.2325,-15.60011 -12.6404,-18.45061 a 34.433823,34.433823 0 0 0 20.9037,-31.62309 34.433823,34.433823 0 0 0 -34.4341,-34.43346 z"
       id="path2512"
       inkscape:connector-curvature="0" />
  </g>
</svg>
